HIERARCHY
ROOT root
{
	OFFSET 0.000000 0.000000 0.000000
	CHANNELS 6 Xposition Yposition Zposition Zrotation Yrotation Xrotation
	JOINT lhip
	{
		OFFSET 0.058581 -0.082280 -0.017664
		CHANNELS 3 Zrotation Yrotation Xrotation
		JOINT lknee
		{
			OFFSET 0.043451 -0.386469 0.008037
			CHANNELS 3 Zrotation Yrotation Xrotation
			JOINT lankle
			{
				OFFSET -0.014790 -0.426874 -0.037428
				CHANNELS 3 Zrotation Yrotation Xrotation
				JOINT ltoe
				{
					OFFSET 0.041054 -0.060286 0.122042
					CHANNELS 3 Zrotation Yrotation Xrotation
					End Site
					{
						OFFSET 0.000000 0.000000 0.000000
					}
				}
			}
		}
	}
	JOINT rhip
	{
		OFFSET -0.060310 -0.090513 -0.013543
		CHANNELS 3 Zrotation Yrotation Xrotation
		JOINT rknee
		{
			OFFSET -0.043257 -0.383688 -0.004843
			CHANNELS 3 Zrotation Yrotation Xrotation
			JOINT rankle
			{
				OFFSET 0.019056 -0.420046 -0.034562
				CHANNELS 3 Zrotation Yrotation Xrotation
				JOINT rtoe
				{
					OFFSET -0.034840 -0.062106 0.130323
					CHANNELS 3 Zrotation Yrotation Xrotation
					End Site
					{
						OFFSET 0.000000 0.000000 0.000000
					}
				}
			}
		}
	}
	JOINT lowerback
	{
		OFFSET 0.004439 0.124404 -0.038385
		CHANNELS 3 Zrotation Yrotation Xrotation
		JOINT upperback
		{
			OFFSET 0.004488 0.137956 0.026820
			CHANNELS 3 Zrotation Yrotation Xrotation
			JOINT chest
			{
				OFFSET -0.002265 0.056032 0.002855
				CHANNELS 3 Zrotation Yrotation Xrotation
				JOINT lowerneck
				{
					OFFSET -0.013390 0.211636 -0.033468
					CHANNELS 3 Zrotation Yrotation Xrotation
					JOINT upperneck
					{
						OFFSET 0.010113 0.088937 0.050410
						CHANNELS 3 Zrotation Yrotation Xrotation
						End Site
						{
							OFFSET 0.000000 0.000000 0.000000
						}
					}
				}
				JOINT lclavicle
				{
					OFFSET 0.071702 0.114000 -0.018898
					CHANNELS 3 Zrotation Yrotation Xrotation
					JOINT lshoulder
					{
						OFFSET 0.122921 0.045205 -0.019046
						CHANNELS 3 Zrotation Yrotation Xrotation
						JOINT lelbow
						{
							OFFSET 0.255332 -0.015649 -0.022946
							CHANNELS 3 Zrotation Yrotation Xrotation
							JOINT lwrist
							{
								OFFSET 0.265709 0.012698 -0.007375
								CHANNELS 3 Zrotation Yrotation Xrotation
								End Site
								{
									OFFSET 0.000000 0.000000 0.000000
								}
							}
						}
					}
				}
				JOINT rclavicle
				{
					OFFSET -0.082954 0.112472 -0.023707
					CHANNELS 3 Zrotation Yrotation Xrotation
					JOINT rshoulder
					{
						OFFSET -0.113228 0.046853 -0.008472
						CHANNELS 3 Zrotation Yrotation Xrotation
						JOINT relbow
						{
							OFFSET -0.260127 -0.014369 -0.031269
							CHANNELS 3 Zrotation Yrotation Xrotation
							JOINT rwrist
							{
								OFFSET -0.269108 0.006794 -0.006027
								CHANNELS 3 Zrotation Yrotation Xrotation
								End Site
								{
									OFFSET 0.000000 0.000000 0.000000
								}
							}
						}
					}
				}
			}
		}
	}
}
MOTION
Frames: 8
Frame Time: 0.033333
2.347988 0.631050 0.996111 -87.646505 -0.066964 82.029134 -4.583479 2.293026 8.346618 1.728099 -8.698165 -0.937960 1.807323 10.675774 -11.277616 0.000000 -0.000000 0.000000 -3.045721 -4.073861 -1.645061 -4.748334 -4.392057 16.392050 -2.058678 -11.143324 -19.626060 0.000000 -0.000000 0.000000 0.209812 1.347560 -0.388527 -4.902363 -1.948220 0.929671 -2.855999 0.461792 3.367445 -4.764262 2.276440 19.334783 2.175803 -0.330270 -7.477100 -3.948371 -1.476605 3.925578 -71.570116 -6.676192 8.775260 -0.408101 -17.602041 32.847759 -4.513980 1.855440 -10.871261 0.927106 2.458366 7.260741 79.737120 1.948369 16.519877 12.504375 33.108438 42.734211 -4.834586 -2.604077 -15.003009 
2.346917 0.630877 0.997388 -87.693109 -0.273473 81.817449 -4.685286 2.045088 8.826720 1.559184 -7.656482 -0.928104 1.874117 10.170593 -11.681206 0.000000 -0.000000 0.000000 -3.512601 -4.299231 -1.072513 -4.849959 -5.450349 16.252920 3.334629 -7.613560 -17.163893 0.000000 -0.000000 0.000000 0.259082 0.881483 0.130267 -5.242473 -1.694501 1.243773 -3.073352 0.100945 3.048068 -4.468219 2.192238 17.988440 1.721557 0.371811 -7.134153 -4.841595 3.565527 1.959578 -70.522485 -6.400378 7.010247 -2.963507 -17.879041 33.838829 -21.505872 0.602926 -9.518691 0.730416 -1.653000 3.626080 80.468567 0.408803 17.485282 11.299571 32.759056 41.264233 10.474898 -1.426367 -10.681038 
2.345561 0.631151 0.997323 -88.108805 -0.291172 81.672483 -4.593223 2.153757 9.194234 1.360206 -7.713533 -0.929857 2.106015 10.603463 -11.715809 0.000000 -0.000000 0.000000 -3.632640 -4.113644 -0.556783 -4.457717 -5.156923 15.688378 3.178017 -7.734703 -17.192445 0.000000 -0.000000 0.000000 0.384674 0.798077 -0.037828 -5.475269 -1.365253 1.704435 -3.177083 0.039190 2.865625 -4.440596 1.429490 18.270913 1.525090 1.615894 -6.666890 -6.344139 5.111036 1.625317 -69.257060 -5.396235 5.821592 -2.976310 -19.616080 32.777819 -22.175950 1.655386 -7.227331 1.311005 -2.581919 3.215754 80.516085 -0.416587 16.807104 10.238922 33.728731 39.052159 16.075157 -1.772271 -8.903200 
2.344112 0.631401 0.996914 -88.755388 -0.345163 81.536895 -4.598372 2.429860 9.478493 1.389962 -8.057347 -0.963989 1.585030 11.669620 -11.716818 0.000000 -0.000000 0.000000 -3.637477 -4.035123 -0.401584 -4.429021 -4.757663 15.605308 3.752653 -7.548691 -17.180249 0.000000 -0.000000 0.000000 0.512384 0.580962 0.363124 -5.827961 -0.955677 0.568969 -3.447927 0.173112 3.450777 -3.489585 1.615813 18.787449 1.696090 1.546071 -5.253150 -7.685858 7.754763 1.354582 -67.473156 -4.347107 5.500587 -3.554362 -21.346340 32.937184 -15.996641 0.813445 -6.829394 2.304155 -4.053269 3.447097 79.729878 -0.466911 17.535697 12.092145 32.640899 38.937699 3.915962 -0.731043 -10.506261 
2.342527 0.631299 0.996310 -89.107637 -0.376710 81.380420 -4.562391 2.727736 9.769345 1.320049 -8.294587 -0.960154 1.754511 12.057372 -11.859588 0.000000 -0.000000 0.000000 -3.742409 -4.148263 -0.023968 -4.189118 -4.182952 15.251786 3.677937 -7.659138 -17.167405 0.000000 -0.000000 0.000000 0.489986 0.636906 0.193974 -5.924967 -0.745530 0.661341 -3.535143 0.254860 3.701880 -3.334251 1.218143 19.046707 1.677342 2.199566 -4.708910 -8.306262 8.986370 1.313208 -66.592965 -3.658796 4.958641 -3.588519 -22.544008 31.949885 -12.796665 0.339572 -5.903926 2.802589 -4.785899 3.295893 79.324381 -0.780776 17.311112 11.968520 32.860115 38.413226 4.894282 -0.321353 -9.272830 
2.340999 0.631690 0.995774 -89.483334 -0.351973 81.218000 -4.521568 2.594479 10.110159 1.347826 -8.003581 -1.052350 1.619626 12.343898 -11.998549 0.000000 -0.000000 0.000000 -3.715876 -4.038354 0.336809 -4.118222 -4.059489 14.988216 3.971928 -7.666987 -17.067594 0.000000 -0.000000 0.000000 0.360174 0.677270 0.180662 -5.921930 -0.554950 0.355744 -3.728199 0.326116 4.205145 -2.594681 1.234807 19.158147 1.804197 2.181550 -3.386516 -9.108141 10.435252 1.437682 -65.030420 -2.526095 4.666972 -3.950010 -24.299308 30.224837 -11.841443 -1.408600 -6.701241 3.582549 -5.688324 3.105386 78.569963 -1.118003 17.637447 11.801276 32.620696 37.368392 4.419708 -0.206932 -8.779753 
2.339072 0.632257 0.995425 -89.901859 -0.242246 80.908206 -4.305446 2.804940 10.693543 1.335965 -8.169356 -1.255920 1.434114 12.821958 -12.028902 0.000000 -0.000000 0.000000 -3.427070 -3.755082 0.976693 -4.126784 -3.645275 14.464640 4.058936 -8.061341 -17.034538 0.000000 -0.000000 0.000000 0.357400 0.588690 0.386104 -6.031396 -0.357616 -0.019270 -3.877517 0.584116 4.565359 -1.939766 1.491054 19.001860 2.301497 1.848716 -1.809710 -9.432677 12.040982 1.321806 -63.766444 -1.417583 4.261087 -5.072529 -25.087322 30.462060 -9.491153 -2.626877 -5.853655 4.468280 -6.322805 2.982024 77.730936 -1.442461 17.493119 11.743399 31.664589 36.108095 0.538778 1.221922 -7.796657 
2.336873 0.632678 0.994856 -90.220435 -0.085183 80.337051 -4.053247 3.188086 11.408022 1.458082 -8.486232 -1.152949 1.032058 13.092286 -12.437284 0.000000 -0.000000 0.000000 -3.255379 -3.870142 1.918735 -4.181539 -3.498952 14.072344 4.272174 -7.738876 -16.892995 0.000000 -0.000000 0.000000 0.297227 0.603965 0.677203 -6.059070 -0.194326 0.050195 -3.817859 0.549649 4.752380 -1.508884 1.360256 19.853676 2.306819 1.824943 -1.349005 -9.663598 13.100675 1.344232 -63.242555 -0.189536 4.216292 -5.125842 -25.438584 30.265846 -7.629367 -3.224201 -6.242348 4.574272 -6.848214 2.840137 77.066338 -1.766298 17.376209 12.574011 30.967280 34.905380 -1.484719 1.214764 -10.773963 
